<?xml version="1.0" encoding="utf-8"?>
<!-- Generator: Adobe Illustrator 24.0.1, SVG Export Plug-In . SVG Version: 6.00 Build 0)  -->
<svg version="1.1"
	 id="svg2" inkscape:export-filename="C:\Users\Daijin\Desktop\Deloitte.png" inkscape:export-xdpi="90" inkscape:export-ydpi="90" inkscape:version="0.91 r13725" sodipodi:docname="Deloitte_logo_2016.svg" xmlns:cc="http://creativecommons.org/ns#" xmlns:dc="http://purl.org/dc/elements/1.1/" xmlns:inkscape="http://www.inkscape.org/namespaces/inkscape" xmlns:rdf="http://www.w3.org/1999/02/22-rdf-syntax-ns#" xmlns:sodipodi="http://sodipodi.sourceforge.net/DTD/sodipodi-0.dtd" xmlns:svg="http://www.w3.org/2000/svg"
	 xmlns="http://www.w3.org/2000/svg" xmlns:xlink="http://www.w3.org/1999/xlink" x="0px" y="0px" viewBox="0 0 200 200"
	 style="enable-background:new 0 0 200 200;" xml:space="preserve">
<style type="text/css">
	.st0{fill:#86BC24;}
	.st1{fill:#3d3e46;}
</style>
<sodipodi:namedview  bordercolor="#666666" borderopacity="1.0" fit-margin-bottom="10" fit-margin-left="10" fit-margin-right="10" fit-margin-top="10" id="base" inkscape:current-layer="g3359" inkscape:cx="300.28476" inkscape:cy="100" inkscape:document-units="px" inkscape:pageopacity="0" inkscape:pageshadow="2" inkscape:window-height="1017" inkscape:window-maximized="1" inkscape:window-width="1920" inkscape:window-x="-8" inkscape:window-y="-8" inkscape:zoom="0.6636812" pagecolor="#ffffff" showgrid="false" units="px">
	</sodipodi:namedview>
<g id="layer1" transform="translate(-2521.9698,-654.34261)" inkscape:groupmode="layer" inkscape:label="Layer 1">
	<g id="g3359" transform="matrix(3.0676446,0,0,3.0676446,-6165.655,-2195.369)">
		<g id="g3371" transform="matrix(1.7716542,0,0,1.7716542,-2301.0501,-745.37663)">
			<path id="path3356" inkscape:connector-curvature="0" class="st0" d="M2925.2,973.4c0-2.5,2-4.5,4.5-4.5c2.5,0,4.5,2,4.5,4.5
				c0,2.5-2,4.5-4.5,4.5C2927.2,977.9,2925.2,975.9,2925.2,973.4"/>
			<path id="path3360" inkscape:connector-curvature="0" class="st1" d="M2914.5,963.1c0-2.8-0.5-4.9-1.6-6.3c-1.1-1.4-2.8-2-5-2
				h-2.4v17.3h1.8c2.5,0,4.3-0.7,5.4-2.2C2913.9,968.4,2914.5,966.1,2914.5,963.1 M2922.9,962.8c0,5.1-1.4,9.1-4.2,11.9
				c-2.8,2.8-6.7,4.2-11.7,4.2h-9.7V948h10.4c4.8,0,8.6,1.3,11.2,3.8C2921.6,954.4,2922.9,958,2922.9,962.8"/>
		</g>
	</g>
</g>
</svg>
