<?xml version="1.0" encoding="utf-8"?>
<!-- Generator: Adobe Illustrator 24.0.1, SVG Export Plug-In . SVG Version: 6.00 Build 0)  -->
<svg version="1.1" id="Layer_1" xmlns="http://www.w3.org/2000/svg" xmlns:xlink="http://www.w3.org/1999/xlink" x="0px" y="0px"
	 viewBox="0 0 43 43" style="enable-background:new 0 0 43 43;" xml:space="preserve">
<g>
	<g>
		<path id="SVGID_1_" fill="#3d3e46" d="M28.8,9h-0.3V2.6c0.3,0.7,0.3,1.3,0.3,1.8V9z M16.6,6.5c0.4,0.1,0.8,0.2,1.3,0.2V6.4
			c-0.4,0-0.8-0.1-1.2-0.2c-0.5-0.1-1-0.2-1.4-0.2c-0.2,0-0.5,0-0.7,0.1v0.3c0.2-0.1,0.4-0.1,0.7-0.1C15.7,6.2,16.1,6.3,16.6,6.5z
			 M12.9,6.2c0.3,0,0.5,0,0.7,0.1V6c-0.2-0.1-0.4-0.1-0.7-0.1c-0.5,0-0.9,0.1-1.4,0.2c-0.4,0.1-0.8,0.2-1.2,0.2v0.3
			c0.4,0,0.8-0.1,1.3-0.2C12,6.3,12.4,6.2,12.9,6.2z M12.9,5.5c0.3,0,0.5,0.1,0.7,0.1V5.2c-0.2-0.1-0.4-0.1-0.7-0.1
			c-0.5,0-0.9,0.1-1.4,0.2c-0.4,0.1-0.8,0.2-1.2,0.2v0.3c0.5,0,0.8-0.1,1.3-0.2C12,5.5,12.4,5.4,12.9,5.5z M12.9,7
			c0.3,0,0.5,0,0.7,0.1V6.8c-0.2-0.1-0.4-0.1-0.7-0.1c-0.5,0-0.9,0.1-1.4,0.2c-0.4,0.1-0.8,0.2-1.2,0.2v0.3c0.5,0,0.8-0.2,1.3-0.2
			C12,7.1,12.4,7,12.9,7z M12.9,4.6c0.3,0,0.5,0.1,0.7,0.1V4.4c-0.2-0.1-0.4-0.1-0.7-0.1c-0.5,0-0.9,0.1-1.4,0.2
			c-0.4,0.1-0.8,0.2-1.2,0.2v0.3c0.4,0,0.8-0.1,1.3-0.2C12,4.8,12.4,4.6,12.9,4.6z M10.8,28.2C7,21.9,7.1,15.8,7.1,15V0.2h28.8V15
			c0,0.8,0.1,6.9-3.7,13.2c-3.4,5.7-8.5,8.2-10.7,9C19.3,36.4,14.2,33.9,10.8,28.2z M18.5,27l-0.8-0.6l0.4-0.9l-1,0.2l-0.4-0.9
			l-0.5,0.9l-1-0.2l0.4,0.9L14.9,27l1,0.2v1l0.8-0.6l0.8,0.6v-1L18.5,27z M22.6,33.3l1-0.5l-1-0.4l0.3-1l-1,0.4l-0.4-1l-0.4,0.9
			l-1-0.4l0.4,1l-1,0.4l1,0.5l-0.4,1l1-0.4l0.4,1l0.4-1l1,0.4L22.6,33.3z M20.5,21.8l-0.8,0.7l1,0.2v1l0.8-0.6l0.8,0.6l0-1l1-0.2
			l-0.8-0.7l0.4-0.9l-1,0.2l-0.4-0.9l-0.4,0.9l-1-0.2L20.5,21.8z M23.9,28.1l0.6-0.6l-0.8-0.2l-0.4-0.8l-0.4,0.8L22,27.5l0.6,0.6
			L22.4,29l0.8-0.4L24,29L23.9,28.1z M26.7,25.1l0.5-0.8h-0.9l-0.4-0.8l-0.4,0.8h-0.9l0.5,0.8l-0.5,0.8h0.9l0.4,0.8l0.4-0.8h0.9
			L26.7,25.1z M33.5,6.6c-0.2,0.1-0.4,0.3-0.5,0.5c-0.1,0.2-0.2,0.4-0.2,0.6c0,0,0,0.1,0,0.2c0.1-0.1,0.2-0.2,0.3-0.2
			c0.1-0.1,0.2-0.2,0.2-0.3c0.1-0.2,0.1-0.4,0.1-0.6C33.5,6.7,33.5,6.6,33.5,6.6z M30.5,11c0.2,0.1,0.5,0.2,0.8,0.1s0.5-0.2,0.7-0.3
			c-0.2-0.1-0.5-0.2-0.7-0.1C30.9,10.7,30.7,10.8,30.5,11z M30.5,10.6c0.1-0.2,0.2-0.4,0.2-0.7c0,0,0,0,0-0.1
			c-0.2,0.1-0.4,0.3-0.6,0.5l0,0c-0.1,0.2-0.2,0.4-0.2,0.7c0,0,0,0,0,0.1C30.2,11,30.4,10.8,30.5,10.6z M30.8,10.5
			C30.8,10.5,30.8,10.5,30.8,10.5c0.1,0,0.1,0,0.2,0c0.2-0.1,0.2-0.3,0.3-0.5c0-0.1,0.1-0.3,0.1-0.4s0-0.2-0.1-0.3
			c-0.2,0.1-0.3,0.2-0.3,0.4C30.9,10,30.9,10.3,30.8,10.5z M31.5,9.9C31.5,9.9,31.5,9.9,31.5,9.9c0.1,0,0.1,0,0.2-0.1
			c0.1-0.2,0.2-0.3,0.2-0.5c0,0,0-0.1,0-0.1c0-0.2-0.1-0.4-0.2-0.6c-0.1,0.2-0.2,0.3-0.3,0.5C31.5,9.4,31.6,9.6,31.5,9.9z M32.1,9.1
			C32.1,9.1,32.1,9.1,32.1,9.1c0.1,0,0.1,0,0.2-0.1c0-0.1,0.1-0.2,0.1-0.4c0,0,0-0.1,0-0.2c0-0.2-0.2-0.5-0.3-0.7
			c-0.1,0.2-0.1,0.3-0.1,0.5C31.9,8.6,32,8.8,32.1,9.1z M32.4,8.2C32.4,8.3,32.4,8.3,32.4,8.2c0.1,0,0.1-0.1,0.1-0.2c0,0,0,0,0-0.1
			c0-0.2,0-0.3-0.1-0.5C32.4,7.3,32.2,7.1,32,7c0,0.1,0,0.2,0,0.3s0,0.2,0,0.2C32.2,7.8,32.4,8,32.4,8.2z M32.6,7.3L32.6,7.3
			c0,0,0.1-0.1,0.1-0.2c0-0.2-0.1-0.3-0.2-0.5c-0.2-0.2-0.3-0.3-0.6-0.4c0,0.2,0,0.4,0.1,0.5C32.2,6.9,32.4,7.1,32.6,7.3z M32.6,6.2
			c-0.1-0.2-0.2-0.3-0.3-0.5c-0.2-0.2-0.4-0.2-0.7-0.3c0,0.2,0.1,0.3,0.2,0.5c0.3,0.1,0.5,0.2,0.7,0.4h0C32.6,6.3,32.6,6.3,32.6,6.2
			z M32.2,5.5c0-0.1,0-0.1,0-0.2C32.1,5.1,32,5,31.8,4.9c-0.2-0.1-0.5-0.2-0.7-0.1c0.1,0.2,0.2,0.3,0.3,0.4
			C31.7,5.2,32,5.3,32.2,5.5L32.2,5.5z M32.1,10.4c0.2-0.1,0.4-0.3,0.6-0.5c-0.3,0-0.5,0-0.8,0c-0.2,0.1-0.4,0.3-0.5,0.5
			c0.1,0,0.3,0,0.4,0.1C31.9,10.5,32,10.5,32.1,10.4z M32.7,9.5c0.2-0.2,0.3-0.4,0.5-0.7c-0.3,0-0.5,0.1-0.7,0.2l0,0
			c-0.2,0.2-0.3,0.3-0.4,0.6c0.1,0,0.3,0,0.4,0S32.7,9.6,32.7,9.5z M33.4,7.7c-0.2,0.1-0.5,0.2-0.7,0.4c-0.2,0.2-0.2,0.4-0.3,0.7
			c0.1,0,0.2-0.1,0.4-0.1c0.1-0.1,0.2-0.2,0.3-0.2C33.4,8.3,33.4,8,33.4,7.7z M33.2,5.4c-0.2,0.2-0.3,0.4-0.4,0.7c0,0.1,0,0.2,0,0.3
			c0,0.2,0,0.3,0.1,0.4c0.1-0.1,0.2-0.2,0.3-0.3c0.1-0.1,0.1-0.2,0.2-0.3c0-0.1,0-0.2,0-0.3C33.3,5.8,33.3,5.6,33.2,5.4z M32.4,5.1
			c0,0.2,0.1,0.5,0.2,0.7c0-0.1,0.1-0.2,0.2-0.3c0-0.1,0.1-0.2,0.1-0.3l0,0c0-0.3-0.1-0.5-0.2-0.7C32.6,4.6,32.4,4.8,32.4,5.1
			L32.4,5.1z M31.8,4c0,0.1,0,0.2,0,0.3c0,0.2,0.2,0.4,0.4,0.6c0-0.1,0.1-0.3,0.1-0.4c0,0,0,0,0-0.1c0-0.1,0-0.2,0-0.3
			c-0.1-0.2-0.2-0.5-0.4-0.7C31.9,3.6,31.8,3.8,31.8,4z M31.7,4.5c-0.2-0.1-0.3-0.2-0.5-0.3c-0.2-0.1-0.5,0-0.7,0
			c0.1,0.2,0.3,0.3,0.4,0.3c0.3,0,0.6,0,0.8,0h0C31.7,4.6,31.7,4.5,31.7,4.5z M31,3c0,0.2,0,0.4,0.1,0.6c0.1,0.2,0.3,0.4,0.5,0.5
			c0-0.2,0-0.3,0-0.4c0-0.1,0-0.2-0.1-0.3c-0.1-0.2-0.3-0.4-0.5-0.5C31,2.9,31,2.9,31,3z M30,3.1c0.1,0.3,0.2,0.5,0.4,0.6
			s0.4,0.2,0.7,0.2c-0.1-0.1-0.1-0.2-0.2-0.3l0,0c0-0.1-0.1-0.2-0.1-0.3c0,0,0,0-0.1-0.1C30.5,3.1,30.3,3.1,30,3.1z M27,9.1
			c0,0.2,0.2,0.4,0.5,0.4h0.7c-0.1,0.2-0.2,0.6-0.2,0.9c0,0.5,0.1,0.8,0.2,1.1c-0.5-0.1-0.8-0.2-1.2-0.4h0l-0.1,0.2h0
			c0.3,0.2,0.6,0.2,0.9,0.3c0,0,0.3,0,0.5,0.1c0,0-0.1,0.1-0.1,0.2c0,0.2,0.1,0.3,0.3,0.3c0.2,0,0.3-0.1,0.3-0.3
			c0-0.1,0-0.2-0.1-0.2c0.2,0,0.4-0.1,0.4-0.1c0.3-0.1,0.7-0.2,1-0.3h0l-0.1-0.2h0c-0.3,0.2-0.7,0.3-1.2,0.4
			c0.1-0.3,0.2-0.7,0.2-1.1c0-0.3,0-0.7-0.2-0.9h0.7c0.3,0,0.5-0.2,0.5-0.4c0-0.2-0.1-0.3-0.3-0.3c-0.2,0-0.3,0.1-0.3,0.3
			c0,0,0,0.1,0,0.1c0,0,0,0.1-0.1,0.1H29V4.4c0-0.7,0-1.5-0.4-2.2L28.5,2l-0.1,0.2C28,3,27.9,3.8,27.9,4.4v4.9h-0.4
			c-0.1,0-0.1-0.1-0.1-0.1c0,0,0-0.1,0-0.1c0-0.2-0.1-0.3-0.3-0.3C27.1,8.8,27,9,27,9.1z M26.2,9.7c-0.1-0.2-0.2-0.3-0.3-0.4
			c0,0.1-0.1,0.2-0.1,0.3c0,0.1,0,0.3,0.1,0.4c0,0.2,0.2,0.3,0.3,0.5c0,0,0.1,0,0.2,0v0C26.2,10.3,26.1,10,26.2,9.7z M25.9,4.8
			c-0.2,0-0.5,0-0.7,0.1c-0.2,0.1-0.3,0.2-0.4,0.3c0,0.1,0,0.1,0,0.2h0c0.2-0.2,0.5-0.2,0.8-0.2C25.7,5.1,25.9,5,25.9,4.8z
			 M25.7,9.1c0-0.2-0.2-0.3-0.3-0.5c-0.1,0.2-0.2,0.4-0.2,0.6c0,0,0,0.1,0,0.1c0,0.2,0.1,0.3,0.2,0.5c0,0,0.1,0.1,0.2,0.1v0
			C25.5,9.6,25.6,9.4,25.7,9.1z M24.8,8.6c0,0.1,0,0.2,0.1,0.4c0,0,0.1,0.1,0.1,0.1c0,0,0,0,0,0c0-0.3,0.1-0.5,0.3-0.8
			c0-0.2-0.1-0.3-0.2-0.5c-0.2,0.2-0.3,0.4-0.3,0.7C24.8,8.5,24.8,8.6,24.8,8.6z M25.1,7.6c0-0.1,0-0.2,0-0.2s0-0.2,0-0.3
			c-0.2,0.2-0.4,0.3-0.5,0.5c-0.1,0.2-0.1,0.3-0.1,0.5c0,0,0,0,0,0.1c0,0,0.1,0.1,0.1,0.2c0,0,0,0,0,0C24.7,8,24.9,7.8,25.1,7.6z
			 M24.5,6.2c0,0,0,0.1,0,0.2h0C24.7,6.1,25,6,25.2,6c0.1-0.2,0.2-0.3,0.2-0.5c-0.3,0-0.5,0.1-0.7,0.3C24.7,5.8,24.6,6,24.5,6.2z
			 M24.4,7.1c0,0,0,0.1,0,0.2c0,0,0,0,0,0c0.2-0.2,0.3-0.4,0.6-0.5c0.1-0.2,0.1-0.3,0.1-0.5c-0.3,0.1-0.5,0.2-0.6,0.4
			C24.5,6.8,24.4,7,24.4,7.1z M24.2,8.1c-0.2-0.2-0.4-0.3-0.7-0.4c0,0.3,0.1,0.5,0.3,0.7c0.1,0.1,0.2,0.2,0.3,0.2
			c0.1,0,0.2,0.1,0.3,0.1C24.5,8.5,24.4,8.3,24.2,8.1z M23.9,8.8c0.1,0.3,0.2,0.5,0.4,0.7c0.1,0.1,0.2,0.1,0.3,0.2
			c0.2,0,0.3,0,0.4,0c-0.1-0.2-0.2-0.5-0.4-0.6l0,0C24.4,8.9,24.1,8.8,23.9,8.8z M24.4,9.9c0.2,0.2,0.3,0.4,0.6,0.5
			c0.1,0,0.2,0.1,0.3,0.1c0.1,0,0.3,0,0.4-0.1c-0.2-0.2-0.3-0.4-0.5-0.5C24.9,9.8,24.7,9.8,24.4,9.9z M25.2,10.8
			c0.2,0.2,0.4,0.3,0.7,0.3c0.2,0,0.5,0,0.7-0.1c-0.2-0.2-0.4-0.3-0.7-0.3l0,0C25.7,10.6,25.4,10.7,25.2,10.8z M27.2,11
			C27.2,11,27.2,11,27.2,11c0-0.3-0.1-0.5-0.2-0.7l0,0c-0.2-0.2-0.3-0.3-0.6-0.5c0,0,0,0,0,0.1c0,0.2,0.1,0.5,0.2,0.7
			C26.7,10.8,26.9,11,27.2,11z M26.2,3.6c0,0.1-0.1,0.2-0.2,0.3c0.2,0,0.5-0.1,0.7-0.2c0.2-0.2,0.3-0.4,0.5-0.6
			c-0.3,0-0.5,0.1-0.7,0.2c0,0,0,0-0.1,0.1C26.2,3.5,26.2,3.6,26.2,3.6L26.2,3.6z M25.4,3.6c0,0.2,0,0.3,0,0.4
			c0.2-0.1,0.4-0.3,0.5-0.5c0.1-0.2,0.2-0.4,0.2-0.6c0-0.1,0-0.1,0-0.2c-0.2,0.1-0.4,0.3-0.5,0.5C25.5,3.5,25.4,3.5,25.4,3.6z
			 M25.3,4.6C25.3,4.6,25.3,4.6,25.3,4.6c0.3-0.1,0.6-0.1,0.8,0c0.2-0.1,0.3-0.2,0.4-0.3c-0.2-0.1-0.5-0.1-0.7,0
			c-0.2,0-0.3,0.1-0.5,0.3C25.3,4.5,25.3,4.6,25.3,4.6z M24.7,4.4C24.7,4.5,24.7,4.5,24.7,4.4c0.1,0.2,0.1,0.3,0.1,0.5
			c0.2-0.2,0.3-0.4,0.4-0.6c0-0.1,0-0.2,0-0.3c0-0.2,0-0.3-0.1-0.5c-0.2,0.2-0.3,0.4-0.4,0.7C24.7,4.2,24.7,4.3,24.7,4.4z M24.1,5.1
			c0,0.1,0,0.2,0.1,0.3c0.1,0.1,0.2,0.2,0.2,0.3c0.1-0.2,0.2-0.4,0.2-0.7l0,0c0-0.2-0.1-0.5-0.2-0.7C24.2,4.6,24.1,4.8,24.1,5.1
			L24.1,5.1z M23.7,5.9c0,0.1,0,0.2,0,0.3c0,0.1,0.1,0.2,0.2,0.3c0.1,0.1,0.2,0.2,0.3,0.3c0-0.2,0.1-0.3,0.1-0.4c0-0.1,0-0.2,0-0.3
			c-0.1-0.2-0.2-0.5-0.4-0.7C23.8,5.6,23.7,5.8,23.7,5.9z M23.6,6.7c0,0.2,0,0.4,0.2,0.6c0,0.1,0.1,0.2,0.2,0.3
			c0.1,0,0.2,0.1,0.3,0.2c0,0,0-0.1,0-0.2c0-0.2,0-0.4-0.2-0.6c-0.1-0.2-0.3-0.4-0.6-0.5C23.6,6.6,23.6,6.7,23.6,6.7z M14.2,9.8
			c0.3-0.2,0.6-0.3,1-0.3c0.5,0,0.9,0.1,1.4,0.2c0.5,0.1,1.1,0.3,1.6,0.2c0-0.3,0-5.7,0-6.7c0-0.1,0-0.1,0-0.2
			c-0.6,0-1.2-0.1-1.7-0.2c-0.5-0.1-0.9-0.2-1.3-0.2c-0.6,0-0.9,0.2-1.1,0.3v0.2V9.8z M9.9,9.9c0.5,0,1.1-0.1,1.6-0.2
			c0.5-0.1,1-0.2,1.4-0.2c0.4,0,0.8,0.1,1,0.3V3.3V3.1c-0.2-0.2-0.5-0.3-1.1-0.3c-0.4,0-0.8,0.1-1.3,0.2C11,3.1,10.5,3.2,9.9,3.1
			c0,0,0,0.1,0,0.2C9.9,4.3,9.9,9.7,9.9,9.9z M8.8,11c0,0,4.5,0,4.7,0c0.1,0.2,0.3,0.3,0.6,0.3c0.3,0,0.5-0.2,0.6-0.3
			c0.2,0,4.7,0,4.7,0V3.3h-0.2h-0.4l0,0.2v0v7c-0.3,0-4.1,0-4.3,0c-0.1,0.1-0.2,0.2-0.4,0.2c-0.2,0-0.3,0-0.3-0.2
			c-0.2,0-3.7,0-4.3,0v-7v0l0-0.2H8.8V11z M10.5,26.4l11-9.8l11,9.9c0.7-1.4,1.2-2.7,1.7-4L21.5,11.1L8.9,22.4
			C9.3,23.7,9.8,25,10.5,26.4z M12.9,7.8c0.3,0,0.5,0,0.7,0.1V7.6c-0.2-0.1-0.4-0.1-0.7-0.1c-0.5,0-0.9,0.1-1.4,0.2
			c-0.4,0.1-0.8,0.2-1.2,0.2v0.3c0.4,0,0.8-0.2,1.3-0.2C12,7.9,12.4,7.8,12.9,7.8z M12.9,8.6c0.3,0,0.5,0,0.7,0.1V8.4
			c-0.2-0.1-0.4-0.1-0.7-0.1c-0.5,0-0.9,0.1-1.4,0.2c-0.4,0.1-0.8,0.2-1.2,0.2V9c0.4,0,0.8-0.2,1.3-0.2C12,8.7,12.4,8.6,12.9,8.6z
			 M12.9,3.9c0.3,0,0.5,0.1,0.7,0.1V3.6c-0.2-0.1-0.4-0.1-0.7-0.1c-0.5,0-0.9,0.1-1.4,0.2C11.1,3.9,10.7,4,10.3,4v0.3
			c0.4,0,0.8-0.1,1.3-0.2C12,4,12.4,3.9,12.9,3.9z M16.6,5.7c0.4,0.1,0.8,0.2,1.3,0.2V5.6c-0.4,0-0.8-0.1-1.2-0.2
			c-0.5-0.1-1-0.2-1.4-0.2c-0.2,0-0.5,0-0.7,0.1v0.3c0.2-0.1,0.4-0.1,0.7-0.1C15.7,5.4,16.1,5.5,16.6,5.7z M16.6,4.1
			c0.4,0.1,0.8,0.2,1.3,0.2V4c-0.4,0-0.8-0.1-1.2-0.2c-0.5-0.1-1-0.2-1.4-0.2c-0.2,0-0.5,0-0.7,0.1V4C14.8,4,15,3.9,15.3,3.9
			C15.7,3.9,16.1,4,16.6,4.1z M16.6,7.2c0.4,0.1,0.8,0.2,1.3,0.2V7.1c-0.4,0-0.8-0.1-1.2-0.2c-0.5-0.1-1-0.2-1.4-0.2
			c-0.2,0-0.5,0-0.7,0.1v0.3C14.8,7,15,7,15.3,7C15.7,7,16.1,7.1,16.6,7.2z M16.6,4.9C17,5,17.4,5.1,17.9,5.1V4.8
			c-0.4,0-0.8-0.1-1.2-0.2c-0.5-0.1-1-0.2-1.4-0.2c-0.2,0-0.5,0-0.7,0.1v0.3c0.2-0.1,0.4-0.1,0.7-0.1C15.7,4.6,16.1,4.8,16.6,4.9z
			 M16.6,8c0.4,0.1,0.8,0.2,1.3,0.2V8c-0.4,0-0.8-0.2-1.2-0.2c-0.5-0.1-1-0.2-1.4-0.2c-0.2,0-0.5,0-0.7,0.1V8
			c0.2-0.1,0.4-0.1,0.7-0.1C15.7,7.8,16.1,7.9,16.6,8z M16.6,8.8C17,8.9,17.4,9,17.9,9V8.7c-0.4,0-0.8-0.1-1.2-0.2
			c-0.5-0.1-1-0.2-1.4-0.2c-0.2,0-0.5,0-0.7,0.1v0.3c0.2-0.1,0.4-0.1,0.7-0.1C15.7,8.6,16.1,8.7,16.6,8.8z M41.1,25.1l-0.1,0.2
			c-0.7,2.4-2,4.8-2.8,6.4L38,32.1l-1.3-1.2c0,0.1-0.1,0.2-0.2,0.3c-3.2,5.2-7.8,8.9-13.2,10.9l-1.9,0.7l-1.9-0.7
			c-5.4-2-10-5.7-13.2-10.9c0-0.1-0.1-0.2-0.2-0.3l-1.3,1.2l-0.2-0.3c-0.9-1.6-2.1-4-2.8-6.4l0-0.2L5,22.3L5.4,22l0.2,0.5
			c0.2,0.6,0.3,1.1,0.5,1.7l0.9-0.8L7.3,23l0.2,0.5c0.7,2,1.5,3.8,2.6,5.5c2.7,4.3,6.5,7.5,11,9.2c0,0,0.3,0.1,0.5,0.2
			c0.2,0,0.5-0.2,0.5-0.2c4.5-1.7,8.3-4.8,11-9.2c1-1.7,1.9-3.5,2.6-5.5l0.2-0.5l1.2,1.1c0.2-0.5,0.4-1.1,0.5-1.7l0.2-0.5L41.1,25.1
			z M4.4,29.8l-0.6-3.7l1.7-1.5c-0.2-0.5-0.3-1-0.5-1.5c-0.5,0.5-2.2,2-2.5,2.2C3.1,26.9,3.8,28.4,4.4,29.8z M5.9,30.4
			c-0.4-0.7-0.8-1.3-1.1-2L5.3,31C5.4,30.8,5.7,30.6,5.9,30.4z M38.1,28.3c-0.3,0.7-0.7,1.4-1.1,2l0,0c0.3,0.2,0.5,0.5,0.7,0.6
			L38.1,28.3z M38.4,26.2c-0.3-0.2-1.9-1.7-2.4-2.2c-0.7,1.8-1.5,3.6-2.5,5.2c-2.8,4.5-6.7,7.7-11.3,9.4l-0.7,0.2l-0.7-0.2
			c-4.7-1.7-8.5-5-11.3-9.4c-1-1.6-1.8-3.3-2.5-5.2c-0.5,0.4-2.1,1.9-2.4,2.2c0.6,1.6,1.4,3.2,2.3,4.6c3.2,5,7.6,8.7,12.9,10.6
			c0,0,1.5,0.5,1.7,0.6c0.2-0.1,1.7-0.6,1.7-0.6c5.3-1.9,9.7-5.6,12.9-10.6C36.9,29.4,37.7,27.9,38.4,26.2z M40.4,25.3
			c-0.2-0.2-2-1.8-2.5-2.2c-0.2,0.5-0.3,1-0.5,1.5l1.7,1.5l-0.6,3.7C39.2,28.4,39.9,26.9,40.4,25.3z M7.3,30l0,0.2l-0.1,0.1
			C7.1,30.1,7.1,30,7,29.8c-0.1-0.1-0.2-0.2-0.2-0.4l0.1,0L7,29.5c0.1-0.1,0.3-0.3,0.4-0.4l-0.3-0.5l-0.5,0.1l0,0.2l-0.1,0
			c0-0.1-0.1-0.2-0.2-0.3c0-0.1-0.1-0.2-0.2-0.3l0.1,0l0.1,0.1c0.4,0,1.2-0.2,1.7-0.2c0.1,0.1,0.2,0.2,0.3,0.3l0,0.2l-0.5,0.6
			C7.7,29.5,7.4,29.9,7.3,30z M7.6,28.9L8,28.4l0,0l-0.7,0.2L7.6,28.9z M10.4,31.8L10.4,31.8c0-0.2,0-0.2-0.1-0.3
			c-0.1-0.1-0.1-0.2-0.2-0.3l-0.1,0.1l0.1,0.2c-0.3,0.2-0.9,0.7-0.9,0.7l0,0c0.2-0.5,0.3-1,0.5-1.5c-0.1-0.1-0.1-0.2-0.2-0.2
			c0-0.1-0.1-0.2-0.2-0.2l-0.1,0.1l0.1,0.2c-0.1,0.1-0.2,0.2-0.4,0.3L8.5,31c-0.2,0.1-0.3,0.2-0.4,0.3L8,31.2l-0.1,0.1
			C8,31.3,8,31.4,8.1,31.5c0.1,0.1,0.1,0.2,0.2,0.3l0.1-0.1l-0.1-0.2c0.3-0.2,0.6-0.5,0.9-0.7l0,0c-0.2,0.5-0.3,1-0.5,1.5
			c0,0,0.1,0.1,0.1,0.2c0,0,0.1,0.1,0.1,0.2c0.2-0.1,0.3-0.3,0.5-0.4l0.4-0.3c0.2-0.1,0.3-0.2,0.4-0.3L10.4,31.8z M10.5,33.2
			c-0.4,0.4-0.4,1,0,1.3c0.2,0.2,0.5,0.4,0.9,0.4l0-0.2c-0.2,0-0.4-0.1-0.5-0.3c-0.3-0.3-0.3-0.7,0-1c0.3-0.3,0.7-0.2,0.8,0
			c0.1,0.1,0.2,0.3,0.2,0.4l-0.1,0.2l0.1,0.1c0.1-0.1,0.3-0.2,0.4-0.2c-0.1-0.2-0.2-0.4-0.3-0.6C11.6,32.9,10.9,32.8,10.5,33.2z
			 M14.3,36.8c-0.3,0.4-0.9,0.5-1.4,0c-0.5-0.4-0.6-0.9-0.2-1.4c0.3-0.4,0.9-0.5,1.4,0C14.6,35.8,14.6,36.3,14.3,36.8z M13.9,35.6
			c-0.3-0.2-0.6-0.1-0.9,0.2c-0.3,0.3-0.3,0.7,0,0.9c0.3,0.2,0.6,0.1,0.9-0.2C14.1,36.1,14.1,35.8,13.9,35.6z M16.9,38
			c-0.1,0.2-0.4,0.3-0.7,0.2c0,0.2,0.1,0.8,0.2,1l0,0.1l-0.1,0.1c-0.2-0.1-0.3-0.2-0.5-0.3c0-0.3,0-0.8-0.1-1l-0.1-0.1l-0.1,0.2
			c-0.1,0.2-0.2,0.3-0.2,0.4l0.1,0.1l-0.1,0.1c-0.1-0.1-0.2-0.2-0.3-0.2c-0.1-0.1-0.2-0.2-0.4-0.2l0.1-0.1l0.2,0.1
			c0.1-0.1,0.2-0.3,0.3-0.4l0.3-0.5c0.1-0.2,0.2-0.3,0.3-0.4l-0.1-0.1l0.1-0.1c0.1,0.1,0.2,0.1,0.3,0.2c0.1,0.1,0.2,0.1,0.3,0.2
			c0.1,0.1,0.2,0.1,0.3,0.2C17.1,37.5,17.1,37.8,16.9,38z M16.4,37.4c-0.1-0.1-0.2-0.1-0.2-0.1c0,0.1-0.1,0.2-0.2,0.3l-0.1,0.1
			c0,0,0.1,0.1,0.1,0.1c0.2,0.2,0.4,0.2,0.5,0C16.6,37.6,16.6,37.5,16.4,37.4z M19.3,39.4c0,0.3-0.1,0.8-0.1,1l0.1,0.1l0,0.1
			c-0.1-0.1-0.3-0.1-0.4-0.2c-0.1-0.1-0.3-0.1-0.4-0.2l0-0.1l0.2,0c0-0.2,0.1-0.4,0.1-0.5l-0.5-0.2l-0.3,0.4L18,40l0,0.1
			c-0.1,0-0.2-0.1-0.3-0.2s-0.2-0.1-0.3-0.1l0-0.1l0.2,0c0.3-0.2,0.8-0.8,1.2-1.2c0.2,0,0.3,0,0.4,0.1l0.2,0.1L19.3,39.4z
			 M18.9,38.8L18.9,38.8l-0.5,0.5l0.4,0.2L18.9,38.8z M24.6,40.1c-0.1-0.2-0.2-0.3-0.2-0.5l-0.2-0.5c-0.1-0.2-0.2-0.3-0.2-0.5
			l0.2-0.1l0-0.1c-0.1,0.1-0.3,0.1-0.4,0.2c-0.1,0-0.3,0.1-0.4,0.2l0,0.1l0.2,0c0.1,0.2,0.2,0.3,0.2,0.5l0.2,0.5
			c0.1,0.2,0.1,0.3,0.2,0.5l-0.2,0.1l0,0.1c0.1-0.1,0.3-0.1,0.4-0.2c0.1,0,0.3-0.1,0.4-0.2l0-0.1L24.6,40.1z M27.9,38.3
			c-0.1-0.1-0.2-0.3-0.3-0.4l-0.3-0.5c-0.1-0.2-0.2-0.3-0.2-0.4l0.1-0.1l-0.1-0.1c-0.1,0.1-0.2,0.2-0.3,0.2
			c-0.1,0.1-0.2,0.1-0.3,0.2c0.1,0.2,0.2,1.2,0.3,1.3c-0.2-0.2-0.9-0.7-1-0.9c-0.1,0.1-0.2,0.2-0.3,0.2c-0.1,0.1-0.2,0.1-0.3,0.2
			l0.1,0.1l0.2,0l0.1,0.2c0.1,0.2,0.5,0.9,0.6,1.1l-0.1,0.1l0.1,0.1c0.1,0,0.2-0.1,0.3-0.2s0.2-0.1,0.3-0.2l-0.1-0.1l-0.2,0.1
			c-0.1-0.1-0.2-0.3-0.3-0.4l-0.2-0.3c-0.1-0.2-0.2-0.4-0.3-0.5l0,0c0.7,0.6,1,0.8,1.2,1L27,39l-0.3-1.5l0,0c0,0.1,0.2,0.2,0.3,0.5
			l0.2,0.3c0.1,0.2,0.2,0.3,0.2,0.5l-0.1,0.1l0,0.1c0.1-0.1,0.2-0.2,0.3-0.2c0.1-0.1,0.3-0.2,0.4-0.2l0-0.1H27.9z M29.6,37
			c-0.1-0.1-0.2-0.2-0.3-0.4l-0.2-0.3c-0.1-0.1-0.2-0.3-0.3-0.4c0,0,0.1-0.1,0.2-0.2c0.2-0.2,0.3-0.1,0.5,0c0.1,0.2,0.2,0.3,0,0.5
			c0,0-0.1,0.1-0.1,0.1l0.1,0.2c0.1,0,0.2-0.1,0.2-0.2c0.4-0.3,0.4-0.7,0.2-1c-0.2-0.2-0.5-0.3-0.8,0c-0.1,0.1-0.2,0.2-0.3,0.2
			c-0.1,0.1-0.2,0.2-0.3,0.3c-0.1,0.1-0.2,0.2-0.3,0.2l0.1,0.1l0.2-0.1c0.1,0.1,0.2,0.2,0.3,0.4l0.3,0.4c0.1,0.2,0.2,0.3,0.3,0.4
			l-0.1,0.1l0.1,0.1c0.1-0.1,0.2-0.2,0.3-0.3c0.1-0.1,0.2-0.2,0.4-0.3l-0.1-0.1L29.6,37z M32.7,34.2L32.7,34.2
			c0,0.2-0.1,0.3-0.2,0.4c-0.1,0.1-0.2,0.2-0.3,0.3l-0.1-0.1l0.1-0.1c-0.1-0.1-0.3-0.2-0.5-0.3l-0.4,0.4l0.3,0.5l0.1-0.1l0.1,0.1
			c-0.1,0.1-0.2,0.2-0.2,0.2c-0.1,0.1-0.2,0.2-0.2,0.2l-0.1-0.1l0.1-0.1c-0.1-0.3-0.5-1.1-0.7-1.6c0.1-0.1,0.2-0.2,0.2-0.3l0.2-0.1
			l0.7,0.3c0.3,0.2,0.8,0.3,0.9,0.4L32.7,34.2z M31.5,34.3L30.8,34l0,0l0.3,0.6L31.5,34.3z M34.6,31.7L34.6,31.7
			c0,0.2-0.2,0.4-0.2,0.5c-0.3,0-0.8,0-1.1,0l-0.1,0.1l0.1,0.1c0.2,0.1,0.3,0.2,0.4,0.3l0.1-0.1l0.1,0.1c-0.1,0.1-0.2,0.2-0.3,0.3
			c-0.1,0.1-0.2,0.2-0.3,0.3l-0.1-0.1l0.1-0.2c-0.1-0.1-0.2-0.2-0.4-0.3l-0.4-0.3c-0.2-0.1-0.3-0.2-0.4-0.3l-0.1,0.1L32,32.3
			c0.1-0.1,0.2-0.2,0.2-0.3c0.1-0.1,0.2-0.2,0.2-0.3c0.1-0.1,0.2-0.2,0.2-0.3c0.3-0.4,0.6-0.4,0.8-0.2s0.2,0.4,0.1,0.7
			c0.2,0,0.8,0,1,0L34.6,31.7z M33.2,31.6c-0.1-0.1-0.3-0.1-0.4,0.1c-0.1,0.1-0.1,0.2-0.2,0.2c0.1,0,0.2,0.2,0.3,0.2l0.1,0.1
			c0,0,0.1-0.1,0.1-0.1C33.4,31.9,33.4,31.7,33.2,31.6z M35.9,29.9c-0.3,0.6-0.8,0.7-1.3,0.4c-0.5-0.3-0.6-0.8-0.3-1.4
			c0.3-0.6,0.8-0.7,1.3-0.4C36.1,28.8,36.3,29.4,35.9,29.9z M35.4,29c-0.3-0.2-0.7-0.2-0.9,0.1c-0.2,0.3,0,0.6,0.3,0.8
			c0.3,0.2,0.7,0.2,0.9-0.1C35.9,29.5,35.7,29.2,35.4,29z M21.5,39.9c-0.2,0-0.4,0.2-0.4,0.4c0,0.2,0.2,0.4,0.4,0.4
			c0.2,0,0.4-0.2,0.4-0.4C21.9,40.1,21.7,39.9,21.5,39.9z M6.5,27.1c0.2,0,0.4-0.2,0.4-0.4c0-0.2-0.2-0.4-0.4-0.4
			c-0.2,0-0.4,0.2-0.4,0.4C6.1,26.9,6.3,27.1,6.5,27.1z M36.6,27.1c0.2,0,0.4-0.2,0.4-0.4c0-0.2-0.2-0.4-0.4-0.4
			c-0.2,0-0.4,0.2-0.4,0.4C36.1,26.9,36.3,27.1,36.6,27.1z"/>
	</g>
</g>
</svg>
